# File created by Blade
# Date/Time:  Tue Jan 27 19:32:37 2015
# Frame Rate: 120.000 fps
#------------------------------------------------------
:FULLY-SPECIFIED
:DEGREES
4040
root 2.938732 32.310961 -0.129202 -3.963166 -7.398801 -0.614451
Spine 3.180574 -7.977354 -1.437997
Head 18.214749 0.862579 6.395827
LeftShoulder -14.745842 2.992957 31.232047
LeftArm -2.344988 29.313934 -101.523581
LeftForeArm 6.471640 -0.000000 22.855979
LeftHand 10.624655 -0.000000 -1.818586
LeftHandThumb1 -26.253704 0.000000 33.147579
RightShoulder -29.360650 -26.143198 -28.084209
RightArm -0.133665 26.508793 62.208498
RightForeArm 5.856789 -0.000000 123.757922
RightHand 28.057346 -0.000000 -26.972479
RightHandThumb1 -24.326973 -0.000000 -32.862282
LeftUpLeg 12.762908 8.907127 1.303305
LeftLeg 0.694812 -0.000000 -0.000000
LeftFoot -20.327528 17.667056 -24.353712
LeftToeBase 16.424527 -0.000000 -0.000000
RightUpLeg 8.134731 -1.443356 3.856190
RightLeg 1.819865 -0.000000 -0.000000
RightFoot -12.079175 -13.766967 13.420991
RightToeBase 11.635970 -0.000000 -0.000000
4041
root 2.938426 32.312002 -0.142877 -3.972000 -7.361878 -0.614289
Spine 3.206478 -7.613629 -1.444167
Head 18.029544 0.576227 6.370381
LeftShoulder -14.768743 3.120643 31.318496
LeftArm -2.439195 28.336076 -101.137244
LeftForeArm 6.714950 -0.000000 23.610123
LeftHand 10.449939 -0.000000 -1.509525
LeftHandThumb1 -26.253704 0.000000 33.147579
RightShoulder -29.364076 -26.025558 -28.125262
RightArm 0.255091 24.637198 62.093159
RightForeArm 5.678807 -0.000000 122.787922
RightHand 27.805201 -0.000000 -26.171739
RightHandThumb1 -24.326973 -0.000000 -32.862282
LeftUpLeg 12.715960 8.867084 1.299010
LeftLeg 0.745194 -0.000000 -0.000000
LeftFoot -20.342374 17.709365 -24.281547
LeftToeBase 16.604338 -0.000000 -0.000000
RightUpLeg 8.131612 -1.443279 3.850638
RightLeg 1.804406 -0.000000 -0.000000
RightFoot -12.064989 -13.735121 13.504076
RightToeBase 11.639451 -0.000000 -0.000000
4042
root 2.938996 32.312376 -0.154104 -3.969014 -7.318502 -0.607378
Spine 3.227458 -7.340017 -1.451585
Head 17.810129 0.338074 6.306020
LeftShoulder -14.907192 3.368063 31.369207
LeftArm -2.458413 27.336867 -100.690748
LeftForeArm 6.984914 -0.000000 24.414907
LeftHand 10.427877 -0.000000 -0.974172
LeftHandThumb1 -26.253704 0.000000 33.147579
RightShoulder -29.328665 -26.246064 -27.963861
RightArm 1.052655 23.005520 62.096325
RightForeArm 5.133495 -0.000000 121.725360
RightHand 27.640105 -0.000000 -25.896062
RightHandThumb1 -24.326973 -0.000000 -32.862282
LeftUpLeg 12.666517 8.838551 1.289426
LeftLeg 0.781026 -0.000000 -0.000000
LeftFoot -20.315465 17.661741 -24.232483
LeftToeBase 16.583231 -0.000000 -0.000000
RightUpLeg 8.120835 -1.492944 3.841085
RightLeg 1.782782 -0.000000 -0.000000
RightFoot -12.039381 -13.742843 13.467803
RightToeBase 11.671289 -0.000000 -0.000000
4043
root 2.939227 32.313058 -0.167985 -3.961214 -7.268794 -0.596511
Spine 3.259468 -7.081118 -1.458930
Head 17.562016 0.143227 6.246797
LeftShoulder -15.063218 3.551291 31.433769
LeftArm -2.579461 26.254835 -100.234529
LeftForeArm 6.982904 0.000000 25.307530
LeftHand 10.586235 0.000000 -2.403093
LeftHandThumb1 -26.253704 0.000000 33.147579
RightShoulder -29.261375 -26.298344 -27.974542
RightArm 1.666116 21.274620 62.074185
RightForeArm 4.566360 -0.000000 120.596288
RightHand 27.789793 -0.000000 -26.069744
RightHandThumb1 -24.326973 -0.000000 -32.862282
LeftUpLeg 12.598020 8.763695 1.266689
LeftLeg 0.829948 -0.000000 -0.000000
LeftFoot -20.348453 17.707413 -24.280477
LeftToeBase 16.611609 -0.000000 -0.000000
RightUpLeg 8.089383 -1.550398 3.825955
RightLeg 1.786955 -0.000000 -0.000000
RightFoot -12.022845 -13.716383 13.458267
RightToeBase 11.647446 -0.000000 -0.000000
4044
root 2.939286 32.313827 -0.181172 -3.970154 -7.222691 -0.583926
Spine 3.298085 -6.782183 -1.474176
Head 17.340895 -0.065127 6.217049
LeftShoulder -15.182526 3.812950 31.466726
LeftArm -2.583102 25.186660 -99.711677
LeftForeArm 7.154619 -0.000000 26.198749
LeftHand 10.494502 -0.000000 -2.174717
LeftHandThumb1 -26.253704 0.000000 33.147579
RightShoulder -29.153312 -26.357138 -27.937121
RightArm 2.177856 19.697205 61.907608
RightForeArm 4.192297 -0.000000 119.440523
RightHand 27.752335 -0.000000 -25.581031
RightHandThumb1 -24.326973 -0.000000 -32.862282
LeftUpLeg 12.554468 8.727241 1.249952
LeftLeg 0.865892 -0.000000 -0.000000
LeftFoot -20.315376 17.662983 -24.258521
LeftToeBase 16.518749 -0.000000 -0.000000
RightUpLeg 8.074336 -1.637447 3.811115
RightLeg 1.792254 -0.000000 -0.000000
RightFoot -12.015415 -13.700907 13.425517
RightToeBase 11.650872 -0.000000 -0.000000
4045
root 2.936556 32.315116 -0.198505 -3.960319 -7.158270 -0.569230
Spine 3.333249 -6.514596 -1.519967
Head 17.100410 -0.265131 6.234547
LeftShoulder -15.350998 3.981282 31.561017
LeftArm -2.698084 24.092544 -99.229214
LeftForeArm 7.407120 -0.000000 27.141201
LeftHand 10.488078 0.000000 -2.269419
LeftHandThumb1 -26.253704 0.000000 33.147579
RightShoulder -28.998961 -26.287948 -27.944992
RightArm 2.593374 18.071767 61.694482
RightForeArm 3.629207 -0.000000 118.265667
RightHand 27.644867 -0.000000 -25.635143
RightHandThumb1 -24.326973 -0.000000 -32.862282
LeftUpLeg 12.467763 8.655319 1.232784
LeftLeg 0.931913 -0.000000 -0.000000
LeftFoot -20.337264 17.698946 -24.281256
LeftToeBase 16.546651 -0.000000 -0.000000
RightUpLeg 8.047422 -1.652191 3.805657
RightLeg 1.773614 -0.000000 -0.000000
RightFoot -12.008348 -13.729807 13.449621
RightToeBase 11.628893 -0.000000 -0.000000
4046
root 2.932580 32.317066 -0.211357 -3.973538 -7.067717 -0.557517
Spine 3.384198 -6.268396 -1.563870
Head 16.862688 -0.507121 6.241462
LeftShoulder -15.522271 4.279561 31.597587
LeftArm -2.670730 23.007862 -98.650566
LeftForeArm 7.569470 -0.000000 28.085305
LeftHand 10.545949 0.000000 -1.626642
LeftHandThumb1 -26.253704 0.000000 33.147579
RightShoulder -28.862079 -26.293839 -27.918492
RightArm 3.065265 16.613952 61.482505
RightForeArm 2.897067 -0.000000 117.027923
RightHand 27.630220 0.000000 -25.518251
RightHandThumb1 -24.326973 -0.000000 -32.862282
LeftUpLeg 12.411135 8.569189 1.220491
LeftLeg 0.998923 -0.000000 -0.000000
LeftFoot -20.337239 17.689090 -24.286029
LeftToeBase 16.518200 -0.000000 -0.000000
RightUpLeg 8.060574 -1.762009 3.798140
RightLeg 1.738491 -0.000000 -0.000000
RightFoot -11.978108 -13.741610 13.397536
RightToeBase 11.742629 -0.000000 -0.000000
4047
root 2.932436 32.317785 -0.225046 -3.942511 -6.995442 -0.541016
Spine 3.381125 -5.974445 -1.584807
Head 16.622989 -0.770163 6.211642
LeftShoulder -15.664563 4.492150 31.656559
LeftArm -2.775105 21.889696 -98.128570
LeftForeArm 8.020542 -0.000000 29.140062
LeftHand 10.229088 -0.000000 -1.028499
LeftHandThumb1 -26.253704 0.000000 33.147579
RightShoulder -28.840902 -26.428711 -27.832540
RightArm 3.750392 15.234764 61.310113
RightForeArm 2.150595 -0.000000 115.683959
RightHand 27.532235 -0.000000 -25.764674
RightHandThumb1 -24.326973 -0.000000 -32.862282
LeftUpLeg 12.321042 8.505817 1.194280
LeftLeg 1.026309 -0.000000 -0.000000
LeftFoot -20.313428 17.688358 -24.282331
LeftToeBase 16.491726 -0.000000 -0.000000
RightUpLeg 8.024964 -1.843438 3.779607
RightLeg 1.707882 -0.000000 -0.000000
RightFoot -11.943875 -13.735824 13.361327
RightToeBase 11.680245 -0.000000 -0.000000
4048
root 2.931458 32.319014 -0.240000 -3.928461 -6.916051 -0.522710
Spine 3.414388 -5.652843 -1.615876
Head 16.351374 -1.006435 6.227879
LeftShoulder -15.762267 4.560707 31.740321
LeftArm -3.003635 20.715860 -97.606426
LeftForeArm 8.445261 0.000000 30.192161
LeftHand 10.037128 0.000000 0.157661
LeftHandThumb1 -26.253704 0.000000 33.147579
RightShoulder -28.740838 -26.441257 -27.800688
RightArm 4.177807 13.928714 61.019177
RightForeArm 1.403836 -0.000000 114.380026
RightHand 27.398344 -0.000000 -25.747318
RightHandThumb1 -24.326973 -0.000000 -32.862282
LeftUpLeg 12.239880 8.452162 1.172886
LeftLeg 1.073553 -0.000000 -0.000000
LeftFoot -20.295111 17.662191 -24.272529
LeftToeBase 16.541159 -0.000000 -0.000000
RightUpLeg 7.994807 -1.879047 3.765640
RightLeg 1.693816 -0.000000 -0.000000
RightFoot -11.928330 -13.763355 13.352685
RightToeBase 11.676643 -0.000000 -0.000000
